<svg width="24" height="24" viewBox="0 0 24 24" fill="none" xmlns="http://www.w3.org/2000/svg">
    <path d="M7 18C7 19.1046 7.89543 20 9 20C10.1046 20 11 19.1046 11 18C11 16.8954 10.1046 16 9 16C7.89543 16 7 16.8954 7 18Z" fill="currentColor"/>
    <path d="M17 18C17 19.1046 17.8954 20 19 20C20.1046 20 21 19.1046 21 18C21 16.8954 20.1046 16 19 16C17.8954 16 17 16.8954 17 18Z" fill="currentColor"/>
    <path fill-rule="evenodd" clip-rule="evenodd" d="M3 2C2.44772 2 2 2.44772 2 3C2 3.55228 2.44772 4 3 4H4.27924L6.62591 11.3626L5.24634 13.8787C5.09052 14.1582 5.01465 14.4758 5.01465 14.7959C5.01465 15.7432 5.82243 16.551 6.76974 16.551H18.9853C19.9326 16.551 20.7404 15.7432 20.7404 14.7959C20.7404 14.4758 20.6645 14.1582 20.5087 13.8787L17.3741 8.55103H7.37409L6.27924 6H19C19.5523 6 20 5.55228 20 5C20 4.44772 19.5523 4 19 4H6.27924L5.72076 2H3Z" fill="currentColor"/>
</svg>
